PathFileType	4	(X/Y/Z)	s01c0201.trc
DataRate	CameraRate	NumFrames	NumMarkers	Units	OrigDataRate	OrigDataStartFrame	OrigNumFrames
200	200	4	48	mm	200	500	2000
Frame#	Time	racr			lacr			c7			jug			rlel			rdr			llel			ldr			s2			lic			ric			lasi			rasi			rpsi			lpsi			rgt			lgt			rth1			rth2			rth3			rth4			rlfc			rsh1			rsh2			rsh3			rsh4			rlmal			rmmal			rcal			rtoe			rmt5			lth1			lth2			lth4			lth3			llfc			lsh1			lsh2			lsh3			lsh4			llmal			lmmal			lcal			ltoe			lmt5			SBIKE			LBIKE			RBIKE			
		X1	Y1	Z1	X2	Y2	Z2	X3	Y3	Z3	X4	Y4	Z4	X5	Y5	Z5	X6	Y6	Z6	X7	Y7	Z7	X8	Y8	Z8	X9	Y9	Z9	X10	Y10	Z10	X11	Y11	Z11	X12	Y12	Z12	X13	Y13	Z13	X14	Y14	Z14	X15	Y15	Z15	X16	Y16	Z16	X17	Y17	Z17	X18	Y18	Z18	X19	Y19	Z19	X20	Y20	Z20	X21	Y21	Z21	X22	Y22	Z22	X23	Y23	Z23	X24	Y24	Z24	X25	Y25	Z25	X26	Y26	Z26	X27	Y27	Z27	X28	Y28	Z28	X29	Y29	Z29	X30	Y30	Z30	X31	Y31	Z31	X32	Y32	Z32	X33	Y33	Z33	X34	Y34	Z34	X35	Y35	Z35	X36	Y36	Z36	X37	Y37	Z37	X38	Y38	Z38	X39	Y39	Z39	X40	Y40	Z40	X41	Y41	Z41	X42	Y42	Z42	X43	Y43	Z43	X44	Y44	Z44	X45	Y45	Z45	X46	Y46	Z46	X47	Y47	Z47	X48	Y48	Z48	
500	2.5000	486.350403	1289.853394	-58.722477	505.613586	1273.807495	-398.319824	457.182037	1380.184326	-225.610428	457.166901	1214.083130	-226.295288	477.474182	1020.677063	48.972935	679.992249	894.396484	-43.224937	481.921967	1022.482422	-541.213684	670.895386	892.971497	-434.012939	-70.753098	1179.052002	-252.688919	106.884644	1191.095459	-420.652710	78.844467	1181.594604	-86.748779	105.808472	1135.479980	-400.022522	109.261681	1140.118286	-120.260185	-43.852615	1218.688110	-200.429352	-39.888454	1221.393311	-305.176971	39.833160	1089.039917	-60.674171	41.544689	1047.703979	-443.914520	159.672180	1033.340942	-54.208637	239.873444	1014.799744	-61.638161	325.915131	988.604126	-73.505699	253.961365	1067.326904	-78.388771	414.030914	928.705505	-100.628891	353.670044	834.622131	-70.170372	312.000000	760.276794	-71.724472	260.683533	688.085327	-81.575912	352.158539	736.154175	-109.576202	188.339493	576.613159	-97.614891	225.857300	585.291260	-181.001877	135.574677	542.240601	-152.495026	403.500641	512.185608	-126.943031	296.019012	486.395355	-61.070530	93.735977	924.572327	-445.617523	153.917419	859.195923	-442.072479	194.551056	894.874268	-438.657196	204.236832	793.173645	-419.043640	244.781998	684.642456	-392.891479	186.231812	592.845825	-436.819733	160.660461	510.292145	-433.030548	132.661163	429.313416	-423.307373	212.307144	496.029602	-402.423248	93.009468	306.622620	-411.574219	121.132431	303.466949	-333.295441	40.697319	289.325806	-371.400452	284.586761	153.397018	-370.316772	182.450409	178.144714	-438.247650	-223.554047	893.898804	-248.441147	-12.133096	85.020157	-453.697021	-20.302202	80.954689	-53.572372	
501	2.5050	485.304352	1288.201294	-57.403534	506.541443	1272.351440	-396.343048	456.969299	1378.637207	-224.302826	456.781708	1212.474731	-225.082748	476.648407	1019.066345	50.058750	679.444397	894.293457	-43.005882	482.375275	1021.795288	-541.047363	671.259521	892.735107	-433.738464	-70.956657	1178.921265	-253.184586	106.100502	1190.631836	-421.225769	78.621536	1181.182129	-87.150948	105.177971	1134.867554	-400.614258	109.169968	1139.660156	-120.599503	-43.970325	1218.642822	-201.013504	-40.188259	1221.196899	-305.666992	39.621437	1088.572510	-61.091301	41.076694	1046.821289	-444.199036	159.181717	1031.542236	-55.034325	239.248245	1012.375244	-62.343876	325.104462	985.436096	-74.605614	253.856094	1064.745850	-79.092171	413.152466	923.929688	-101.858391	353.201691	828.515747	-70.955971	312.842346	753.503052	-72.560013	262.798889	680.394226	-82.250702	353.397339	730.176270	-110.551117	192.856720	568.623108	-97.925606	229.831802	577.981689	-181.759323	140.189362	533.159546	-152.304047	409.218079	510.853546	-126.701279	302.581268	481.831848	-60.882244	94.585037	924.029785	-445.102264	155.731750	859.508545	-441.142914	195.810577	895.715759	-437.486420	206.916473	794.204590	-417.875549	247.228455	685.723328	-391.755127	187.273499	594.795776	-435.781921	159.989456	512.684875	-432.084320	130.281372	432.342285	-422.428070	211.011734	497.460724	-400.782959	86.795616	311.073090	-410.519043	115.425209	307.182831	-332.378845	34.446785	293.866272	-369.872589	277.064667	156.206497	-370.739471	174.778595	181.927719	-437.905518	-223.482208	893.871582	-248.521378	-12.127085	84.941788	-453.708557	-20.285793	80.929855	-53.591827	
502	2.5100	484.331390	1286.505127	-56.206116	507.429962	1270.881714	-394.373230	456.861389	1376.958374	-223.098053	456.297699	1210.434326	-224.384048	475.810516	1017.494995	51.095730	678.894775	894.108398	-42.789700	482.651611	1020.930359	-540.916260	671.129761	892.317017	-433.877594	-71.218307	1178.604370	-253.728394	105.739479	1190.139648	-422.220734	78.465706	1180.591553	-87.560608	104.516426	1134.092651	-401.187042	109.156654	1139.288696	-121.326035	-44.099155	1218.433228	-201.649643	-40.485420	1220.870483	-306.205811	39.502064	1087.775513	-61.449390	40.735497	1045.690674	-444.507202	158.846298	1029.639771	-55.864780	238.688339	1009.844177	-62.975899	324.338593	982.094849	-75.654221	253.845551	1062.013184	-79.802513	412.185486	918.933167	-103.058304	352.774628	821.866577	-71.781784	313.726929	746.198975	-73.618629	265.106659	672.183960	-82.988312	354.567291	723.677490	-111.793503	197.485336	560.548889	-98.323822	234.015320	570.543396	-182.488251	144.968002	523.898010	-152.301010	414.919769	508.996094	-126.522293	308.930847	476.974426	-60.728909	95.464447	923.368958	-444.644775	157.565491	859.639832	-440.154510	196.989563	896.388733	-436.170105	209.647308	795.070679	-416.774200	249.820450	686.692505	-390.782532	188.549240	596.673767	-434.883087	159.429062	515.127197	-431.298828	127.836929	435.540588	-421.552582	209.561981	498.954712	-398.963196	80.693970	315.802826	-409.390442	109.152283	311.514618	-330.886292	28.126200	298.688782	-368.268097	269.652313	159.406723	-371.194977	167.056442	186.073151	-437.565979	-223.414429	893.843445	-248.642487	-12.106042	84.905014	-453.733154	-20.593184	80.963646	-53.716972	
503	2.5150	483.385345	1284.776978	-55.095806	508.270996	1269.397949	-392.500397	456.809143	1375.178101	-222.043137	455.859924	1208.494751	-223.161575	474.931152	1015.799072	52.131367	678.385559	893.851074	-42.619911	482.776581	1019.952759	-540.813660	670.763794	891.835022	-434.008240	-71.525513	1178.152466	-254.231628	104.456810	1189.295654	-422.558441	78.317543	1179.758057	-88.092972	103.896683	1133.155029	-401.754089	109.077629	1138.630005	-121.764961	-44.242901	1218.099365	-202.303787	-40.776112	1220.418335	-306.777161	39.363754	1086.818481	-61.810047	40.478348	1044.450195	-444.830444	158.467453	1027.698730	-56.692574	238.098099	1007.294861	-63.684933	323.790161	978.643555	-77.345459	253.805450	1059.256226	-80.543098	411.113770	913.651245	-104.227692	352.415375	814.811157	-72.573166	314.826111	738.486816	-74.635460	267.569672	663.575684	-83.857765	355.867950	716.859375	-113.176460	202.215607	552.443420	-98.762917	238.316757	563.043823	-183.239258	150.696579	514.349548	-153.025925	420.513153	506.421509	-126.431808	315.286316	471.869110	-60.779335	96.371735	922.621887	-444.273682	159.326157	859.627380	-439.331482	198.163620	896.869507	-434.864685	212.086151	795.657104	-415.777863	252.504852	687.640930	-389.982910	189.955750	598.437378	-434.040710	158.840515	517.571716	-430.449860	125.331192	438.909821	-420.549896	208.259933	500.504120	-397.346466	74.725952	320.811920	-408.214569	103.163658	316.120544	-329.434998	21.603054	303.774567	-366.568420	262.379578	163.200577	-371.752686	159.496948	190.610992	-437.137878	-223.381149	893.820190	-248.760330	-12.113192	84.833588	-453.747314	-20.309801	80.885353	-53.621361	
